<svg id="Capa_1" enable-background="new 0 0 512 512" height="512" viewBox="0 0 512 512" width="512" xmlns="http://www.w3.org/2000/svg"><g><g><path d="m465.986 402.44c28.993-41.497 46.014-91.977 46.014-146.44 0-141.385-114.615-256-256-256s-256 114.615-256 256c0 54.463 17.021 104.943 46.014 146.44z" fill="#4fabf7"/></g><g><path d="m466 60v342.44c-46.27 66.23-123.08 109.56-210 109.56s-163.73-43.33-210-109.56v-342.44l55.17-7.88 154.83-22.12 154.83 22.12z" fill="#4b6bb2"/></g><g><path d="m125.67 48.62-24.5 3.5-55.17 7.88v342.44c46.27 66.23 123.08 109.56 210 109.56s163.73-43.33 210-109.56c-187.959 0-340.329-152.371-340.329-340.329v-13.491z" fill="#3c58a0"/></g><g><g><g><path d="m124.557 168.5c-4.142 0-7.5-3.358-7.5-7.5v-40.539h-2.768c-4.142 0-7.5-3.358-7.5-7.5s3.358-7.5 7.5-7.5h10.268c4.142 0 7.5 3.358 7.5 7.5v48.039c0 4.142-3.358 7.5-7.5 7.5z" fill="#73f9a9"/></g></g><g><g><path d="m168.448 168.5c-11.795 0-21.392-9.596-21.392-21.392v-22.217c0-11.795 9.596-21.392 21.392-21.392s21.392 9.596 21.392 21.392v22.217c0 11.796-9.596 21.392-21.392 21.392zm0-50c-3.524 0-6.392 2.867-6.392 6.392v22.217c0 3.524 2.867 6.392 6.392 6.392s6.392-2.867 6.392-6.392v-22.217c0-3.525-2.867-6.392-6.392-6.392z" fill="#73f9a9"/></g></g><g><g><path d="m215.608 168.5c-4.142 0-7.5-3.358-7.5-7.5v-40.539h-2.768c-4.142 0-7.5-3.358-7.5-7.5s3.358-7.5 7.5-7.5h10.268c4.142 0 7.5 3.358 7.5 7.5v48.039c0 4.142-3.358 7.5-7.5 7.5z" fill="#73f9a9"/></g></g><g><g><path d="m259.5 168.5c-11.795 0-21.392-9.596-21.392-21.392v-22.217c0-11.795 9.596-21.392 21.392-21.392s21.392 9.596 21.392 21.392v22.217c0 11.796-9.597 21.392-21.392 21.392zm0-50c-3.524 0-6.392 2.867-6.392 6.392v22.217c0 3.524 2.867 6.392 6.392 6.392s6.392-2.867 6.392-6.392v-22.217c0-3.525-2.868-6.392-6.392-6.392z" fill="#73f9a9"/></g></g><g><g><path d="m306.66 168.5c-4.142 0-7.5-3.358-7.5-7.5v-40.539h-2.768c-4.142 0-7.5-3.358-7.5-7.5s3.358-7.5 7.5-7.5h10.268c4.142 0 7.5 3.358 7.5 7.5v48.039c0 4.142-3.358 7.5-7.5 7.5z" fill="#73f9a9"/></g></g><g><g><path d="m350.552 168.5c-11.795 0-21.392-9.596-21.392-21.392v-22.217c0-11.795 9.597-21.392 21.392-21.392s21.392 9.596 21.392 21.392v22.217c-.001 11.796-9.597 21.392-21.392 21.392zm0-50c-3.524 0-6.392 2.867-6.392 6.392v22.217c0 3.524 2.868 6.392 6.392 6.392s6.392-2.867 6.392-6.392v-22.217c-.001-3.525-2.868-6.392-6.392-6.392z" fill="#73f9a9"/></g></g><g><g><path d="m397.711 168.5c-4.142 0-7.5-3.358-7.5-7.5v-40.539h-2.768c-4.142 0-7.5-3.358-7.5-7.5s3.358-7.5 7.5-7.5h10.268c4.142 0 7.5 3.358 7.5 7.5v48.039c0 4.142-3.357 7.5-7.5 7.5z" fill="#73f9a9"/></g></g></g><g><g><g><path d="m348.686 258.5c-4.142 0-7.5-3.358-7.5-7.5v-40.539h-2.768c-4.142 0-7.5-3.358-7.5-7.5s3.358-7.5 7.5-7.5h10.268c4.142 0 7.5 3.358 7.5 7.5v48.039c0 4.142-3.358 7.5-7.5 7.5z" fill="#73f9a9"/></g></g><g><g><path d="m301.526 258.5c-11.795 0-21.392-9.596-21.392-21.392v-22.217c0-11.795 9.597-21.392 21.392-21.392s21.392 9.596 21.392 21.392v22.217c-.001 11.796-9.597 21.392-21.392 21.392zm0-50c-3.524 0-6.392 2.867-6.392 6.392v22.217c0 3.524 2.868 6.392 6.392 6.392s6.392-2.867 6.392-6.392v-22.217c-.001-3.525-2.868-6.392-6.392-6.392z" fill="#73f9a9"/></g></g><g><g><path d="m392.577 258.5c-11.795 0-21.392-9.596-21.392-21.392v-22.217c0-11.795 9.596-21.392 21.392-21.392s21.392 9.596 21.392 21.392v22.217c0 11.796-9.596 21.392-21.392 21.392zm0-50c-3.524 0-6.392 2.867-6.392 6.392v22.217c0 3.524 2.867 6.392 6.392 6.392s6.392-2.867 6.392-6.392v-22.217c0-3.525-2.867-6.392-6.392-6.392z" fill="#73f9a9"/></g></g><g><g><path d="m257.634 258.5c-4.142 0-7.5-3.358-7.5-7.5v-40.539h-2.768c-4.142 0-7.5-3.358-7.5-7.5s3.358-7.5 7.5-7.5h10.268c4.142 0 7.5 3.358 7.5 7.5v48.039c0 4.142-3.358 7.5-7.5 7.5z" fill="#73f9a9"/></g></g><g><g><path d="m210.474 258.5c-11.795 0-21.392-9.596-21.392-21.392v-22.217c0-11.795 9.596-21.392 21.392-21.392s21.392 9.596 21.392 21.392v22.217c0 11.796-9.596 21.392-21.392 21.392zm0-50c-3.524 0-6.392 2.867-6.392 6.392v22.217c0 3.524 2.867 6.392 6.392 6.392s6.392-2.867 6.392-6.392v-22.217c0-3.525-2.867-6.392-6.392-6.392z" fill="#73f9a9"/></g></g><g><g><path d="m166.583 258.5c-4.142 0-7.5-3.358-7.5-7.5v-40.539h-2.768c-4.142 0-7.5-3.358-7.5-7.5s3.358-7.5 7.5-7.5h10.268c4.142 0 7.5 3.358 7.5 7.5v48.039c0 4.142-3.358 7.5-7.5 7.5z" fill="#73f9a9"/></g></g><g><g><path d="m119.423 258.5c-11.795 0-21.392-9.596-21.392-21.392v-22.217c0-11.795 9.597-21.392 21.392-21.392s21.392 9.596 21.392 21.392v22.217c-.001 11.796-9.597 21.392-21.392 21.392zm0-50c-3.524 0-6.392 2.867-6.392 6.392v22.217c0 3.524 2.868 6.392 6.392 6.392s6.392-2.867 6.392-6.392v-22.217c-.001-3.525-2.868-6.392-6.392-6.392z" fill="#73f9a9"/></g></g></g><g><g><g><path d="m124.557 348.5c-4.142 0-7.5-3.358-7.5-7.5v-40.539h-2.768c-4.142 0-7.5-3.358-7.5-7.5s3.358-7.5 7.5-7.5h10.268c4.142 0 7.5 3.358 7.5 7.5v48.039c0 4.142-3.358 7.5-7.5 7.5z" fill="#73f9a9"/></g></g><g><g><path d="m168.448 348.5c-11.795 0-21.392-9.596-21.392-21.392v-22.217c0-11.795 9.596-21.392 21.392-21.392s21.392 9.596 21.392 21.392v22.217c0 11.796-9.596 21.392-21.392 21.392zm0-50c-3.524 0-6.392 2.867-6.392 6.392v22.217c0 3.524 2.867 6.392 6.392 6.392s6.392-2.867 6.392-6.392v-22.217c0-3.525-2.867-6.392-6.392-6.392z" fill="#73f9a9"/></g></g><g><g><path d="m215.608 348.5c-4.142 0-7.5-3.358-7.5-7.5v-40.539h-2.768c-4.142 0-7.5-3.358-7.5-7.5s3.358-7.5 7.5-7.5h10.268c4.142 0 7.5 3.358 7.5 7.5v48.039c0 4.142-3.358 7.5-7.5 7.5z" fill="#73f9a9"/></g></g><g><g><path d="m259.5 348.5c-11.795 0-21.392-9.596-21.392-21.392v-22.217c0-11.795 9.596-21.392 21.392-21.392s21.392 9.596 21.392 21.392v22.217c0 11.796-9.597 21.392-21.392 21.392zm0-50c-3.524 0-6.392 2.867-6.392 6.392v22.217c0 3.524 2.867 6.392 6.392 6.392s6.392-2.867 6.392-6.392v-22.217c0-3.525-2.868-6.392-6.392-6.392z" fill="#73f9a9"/></g></g><g><g><path d="m306.66 348.5c-4.142 0-7.5-3.358-7.5-7.5v-40.539h-2.768c-4.142 0-7.5-3.358-7.5-7.5s3.358-7.5 7.5-7.5h10.268c4.142 0 7.5 3.358 7.5 7.5v48.039c0 4.142-3.358 7.5-7.5 7.5z" fill="#73f9a9"/></g></g><g><g><path d="m350.552 348.5c-11.795 0-21.392-9.596-21.392-21.392v-22.217c0-11.795 9.597-21.392 21.392-21.392s21.392 9.596 21.392 21.392v22.217c-.001 11.796-9.597 21.392-21.392 21.392zm0-50c-3.524 0-6.392 2.867-6.392 6.392v22.217c0 3.524 2.868 6.392 6.392 6.392s6.392-2.867 6.392-6.392v-22.217c-.001-3.525-2.868-6.392-6.392-6.392z" fill="#73f9a9"/></g></g><g><g><path d="m397.711 348.5c-4.142 0-7.5-3.358-7.5-7.5v-40.539h-2.768c-4.142 0-7.5-3.358-7.5-7.5s3.358-7.5 7.5-7.5h10.268c4.142 0 7.5 3.358 7.5 7.5v48.039c0 4.142-3.357 7.5-7.5 7.5z" fill="#73f9a9"/></g></g></g><g><g><g><path d="m348.686 438.5c-4.142 0-7.5-3.358-7.5-7.5v-40.539h-2.768c-4.142 0-7.5-3.358-7.5-7.5s3.358-7.5 7.5-7.5h10.268c4.142 0 7.5 3.358 7.5 7.5v48.039c0 4.142-3.358 7.5-7.5 7.5z" fill="#73f9a9"/></g></g><g><g><path d="m301.526 438.5c-11.795 0-21.392-9.596-21.392-21.392v-22.217c0-11.795 9.597-21.392 21.392-21.392s21.392 9.596 21.392 21.392v22.217c-.001 11.796-9.597 21.392-21.392 21.392zm0-50c-3.524 0-6.392 2.867-6.392 6.392v22.217c0 3.524 2.868 6.392 6.392 6.392s6.392-2.867 6.392-6.392v-22.217c-.001-3.525-2.868-6.392-6.392-6.392z" fill="#73f9a9"/></g></g><g><g><path d="m392.577 438.5c-11.795 0-21.392-9.596-21.392-21.392v-22.217c0-11.795 9.596-21.392 21.392-21.392s21.392 9.596 21.392 21.392v22.217c0 11.796-9.596 21.392-21.392 21.392zm0-50c-3.524 0-6.392 2.867-6.392 6.392v22.217c0 3.524 2.867 6.392 6.392 6.392s6.392-2.867 6.392-6.392v-22.217c0-3.525-2.867-6.392-6.392-6.392z" fill="#73f9a9"/></g></g><g><g><path d="m257.634 438.5c-4.142 0-7.5-3.358-7.5-7.5v-40.539h-2.768c-4.142 0-7.5-3.358-7.5-7.5s3.358-7.5 7.5-7.5h10.268c4.142 0 7.5 3.358 7.5 7.5v48.039c0 4.142-3.358 7.5-7.5 7.5z" fill="#73f9a9"/></g></g><g><g><path d="m210.474 438.5c-11.795 0-21.392-9.596-21.392-21.392v-22.217c0-11.795 9.596-21.392 21.392-21.392s21.392 9.596 21.392 21.392v22.217c0 11.796-9.596 21.392-21.392 21.392zm0-50c-3.524 0-6.392 2.867-6.392 6.392v22.217c0 3.524 2.867 6.392 6.392 6.392s6.392-2.867 6.392-6.392v-22.217c0-3.525-2.867-6.392-6.392-6.392z" fill="#73f9a9"/></g></g><g><g><path d="m166.583 438.5c-4.142 0-7.5-3.358-7.5-7.5v-40.539h-2.768c-4.142 0-7.5-3.358-7.5-7.5s3.358-7.5 7.5-7.5h10.268c4.142 0 7.5 3.358 7.5 7.5v48.039c0 4.142-3.358 7.5-7.5 7.5z" fill="#73f9a9"/></g></g><g><g><path d="m119.423 438.5c-11.795 0-21.392-9.596-21.392-21.392v-22.217c0-11.795 9.597-21.392 21.392-21.392s21.392 9.596 21.392 21.392v22.217c-.001 11.796-9.597 21.392-21.392 21.392zm0-50c-3.524 0-6.392 2.867-6.392 6.392v22.217c0 3.524 2.868 6.392 6.392 6.392s6.392-2.867 6.392-6.392v-22.217c-.001-3.525-2.868-6.392-6.392-6.392z" fill="#73f9a9"/></g></g></g><g><path d="m466 60h-420v-40c0-11.046 8.954-20 20-20h380c11.046 0 20 8.954 20 20z" fill="#2a428c"/></g><g><path d="m114.557 50c0-5.523 4.477-10 10-10v-20c-5.523 0-10-4.477-10-10s4.477-10 10-10h-58.557c-11.046 0-20 8.954-20 20v40h78.557c-5.523 0-10-4.477-10-10z" fill="#1c2e7a"/></g><g><circle cx="423.5" cy="30" fill="#ff4155" r="10"/></g><g><circle cx="388.5" cy="30" fill="#ffdd40" r="10"/></g><g><circle cx="353.5" cy="30" fill="#38c674" r="10"/></g><g><path d="m88.5 40h215c5.523 0 10-4.477 10-10 0-5.523-4.477-10-10-10h-215c-5.523 0-10 4.477-10 10 0 5.523 4.477 10 10 10z" fill="#3c58a0"/></g></g></svg>